<svg xmlns="http://www.w3.org/2000/svg" viewBox="0 0 760 400" width="760" height="400" role="img">
<rect width="760" height="400" fill="#FAF8F3"/>
<text x="58" y="30" font-family="Barlow, 'DejaVu Sans', system-ui, sans-serif" font-size="17" font-weight="600" fill="#12181D">What actually limits a crack width measurement is how many pixels it spans</text>
<line x1="58.0" y1="348.0" x2="738.0" y2="348.0" stroke="#D8D2C4" stroke-width="1"/>
<text x="49.0" y="352.0" text-anchor="end" font-family="Barlow, 'DejaVu Sans', system-ui, sans-serif" font-size="13" fill="#5E6670">-30</text>
<line x1="58.0" y1="313.8" x2="738.0" y2="313.8" stroke="#D8D2C4" stroke-width="1"/>
<text x="49.0" y="317.8" text-anchor="end" font-family="Barlow, 'DejaVu Sans', system-ui, sans-serif" font-size="13" fill="#5E6670">-15</text>
<line x1="58.0" y1="279.5" x2="738.0" y2="279.5" stroke="#D8D2C4" stroke-width="1"/>
<text x="49.0" y="283.5" text-anchor="end" font-family="Barlow, 'DejaVu Sans', system-ui, sans-serif" font-size="13" fill="#5E6670">0</text>
<line x1="58.0" y1="245.2" x2="738.0" y2="245.2" stroke="#D8D2C4" stroke-width="1"/>
<text x="49.0" y="249.2" text-anchor="end" font-family="Barlow, 'DejaVu Sans', system-ui, sans-serif" font-size="13" fill="#5E6670">15</text>
<line x1="58.0" y1="211.0" x2="738.0" y2="211.0" stroke="#D8D2C4" stroke-width="1"/>
<text x="49.0" y="215.0" text-anchor="end" font-family="Barlow, 'DejaVu Sans', system-ui, sans-serif" font-size="13" fill="#5E6670">30</text>
<line x1="58.0" y1="176.8" x2="738.0" y2="176.8" stroke="#D8D2C4" stroke-width="1"/>
<text x="49.0" y="180.8" text-anchor="end" font-family="Barlow, 'DejaVu Sans', system-ui, sans-serif" font-size="13" fill="#5E6670">45</text>
<line x1="58.0" y1="142.5" x2="738.0" y2="142.5" stroke="#D8D2C4" stroke-width="1"/>
<text x="49.0" y="146.5" text-anchor="end" font-family="Barlow, 'DejaVu Sans', system-ui, sans-serif" font-size="13" fill="#5E6670">60</text>
<line x1="58.0" y1="108.2" x2="738.0" y2="108.2" stroke="#D8D2C4" stroke-width="1"/>
<text x="49.0" y="112.2" text-anchor="end" font-family="Barlow, 'DejaVu Sans', system-ui, sans-serif" font-size="13" fill="#5E6670">75</text>
<line x1="58.0" y1="74.0" x2="738.0" y2="74.0" stroke="#D8D2C4" stroke-width="1"/>
<text x="49.0" y="78.0" text-anchor="end" font-family="Barlow, 'DejaVu Sans', system-ui, sans-serif" font-size="13" fill="#5E6670">90</text>
<line x1="123.3" y1="348.0" x2="123.3" y2="353.0" stroke="#5E6670" stroke-width="1"/>
<text x="123.3" y="369.0" text-anchor="middle" font-family="Barlow, 'DejaVu Sans', system-ui, sans-serif" font-size="13" fill="#5E6670">2</text>
<line x1="215.3" y1="348.0" x2="215.3" y2="353.0" stroke="#5E6670" stroke-width="1"/>
<text x="215.3" y="369.0" text-anchor="middle" font-family="Barlow, 'DejaVu Sans', system-ui, sans-serif" font-size="13" fill="#5E6670">3</text>
<line x1="331.3" y1="348.0" x2="331.3" y2="353.0" stroke="#5E6670" stroke-width="1"/>
<text x="331.3" y="369.0" text-anchor="middle" font-family="Barlow, 'DejaVu Sans', system-ui, sans-serif" font-size="13" fill="#5E6670">5</text>
<line x1="438.0" y1="348.0" x2="438.0" y2="353.0" stroke="#5E6670" stroke-width="1"/>
<text x="438.0" y="369.0" text-anchor="middle" font-family="Barlow, 'DejaVu Sans', system-ui, sans-serif" font-size="13" fill="#5E6670">8</text>
<line x1="530.0" y1="348.0" x2="530.0" y2="353.0" stroke="#5E6670" stroke-width="1"/>
<text x="530.0" y="369.0" text-anchor="middle" font-family="Barlow, 'DejaVu Sans', system-ui, sans-serif" font-size="13" fill="#5E6670">12</text>
<line x1="646.0" y1="348.0" x2="646.0" y2="353.0" stroke="#5E6670" stroke-width="1"/>
<text x="646.0" y="369.0" text-anchor="middle" font-family="Barlow, 'DejaVu Sans', system-ui, sans-serif" font-size="13" fill="#5E6670">20</text>
<line x1="738.0" y1="348.0" x2="738.0" y2="353.0" stroke="#5E6670" stroke-width="1"/>
<text x="738.0" y="369.0" text-anchor="middle" font-family="Barlow, 'DejaVu Sans', system-ui, sans-serif" font-size="13" fill="#5E6670">30</text>
<line x1="58.0" y1="279.5" x2="738.0" y2="279.5" stroke="#12181D" stroke-width="1.4" stroke-dasharray="5 4"/>
<polygon points="290.8,273.6 369.5,279.6 448.1,278.4 534.6,280.5 638.6,280.0 717.3,280.0 717.3,280.0 638.6,281.1 534.6,281.8 448.1,281.5 369.5,280.9 290.8,284.2" fill="#15618F" fill-opacity="0.16"/>
<polyline points="290.8,280.4 369.5,279.6 448.1,278.6 534.6,280.5 638.6,280.3 717.3,280.0" fill="none" stroke="#15618F" stroke-width="2.2" stroke-linejoin="round"/>
<circle cx="290.8" cy="280.4" r="3.4" fill="#15618F"/>
<circle cx="369.5" cy="279.6" r="3.4" fill="#15618F"/>
<circle cx="448.1" cy="278.6" r="3.4" fill="#15618F"/>
<circle cx="534.6" cy="280.5" r="3.4" fill="#15618F"/>
<circle cx="638.6" cy="280.3" r="3.4" fill="#15618F"/>
<circle cx="717.3" cy="280.0" r="3.4" fill="#15618F"/>
<polyline points="290.8,276.8 369.5,277.4 448.1,278.3 534.6,280.5 638.6,280.2 717.3,280.0" fill="none" stroke="#8A5A06" stroke-width="2.2" stroke-linejoin="round" stroke-dasharray="6 4"/>
<circle cx="290.8" cy="276.8" r="3.4" fill="#8A5A06"/>
<circle cx="369.5" cy="277.4" r="3.4" fill="#8A5A06"/>
<circle cx="448.1" cy="278.3" r="3.4" fill="#8A5A06"/>
<circle cx="534.6" cy="280.5" r="3.4" fill="#8A5A06"/>
<circle cx="638.6" cy="280.2" r="3.4" fill="#8A5A06"/>
<circle cx="717.3" cy="280.0" r="3.4" fill="#8A5A06"/>
<polyline points="290.8,200.8 369.5,137.6 448.1,189.4 534.6,150.9 638.6,252.0" fill="none" stroke="#A8321F" stroke-width="2.2" stroke-linejoin="round" stroke-dasharray="6 4"/>
<circle cx="290.8" cy="200.8" r="3.4" fill="#A8321F"/>
<circle cx="369.5" cy="137.6" r="3.4" fill="#A8321F"/>
<circle cx="448.1" cy="189.4" r="3.4" fill="#A8321F"/>
<circle cx="534.6" cy="150.9" r="3.4" fill="#A8321F"/>
<circle cx="638.6" cy="252.0" r="3.4" fill="#A8321F"/>
<polyline points="290.8,72.6 369.5,192.5 448.1,285.8 534.6,295.1 638.6,294.0" fill="none" stroke="#4A7A63" stroke-width="2.2" stroke-linejoin="round" stroke-dasharray="6 4"/>
<circle cx="290.8" cy="72.6" r="3.4" fill="#4A7A63"/>
<circle cx="369.5" cy="192.5" r="3.4" fill="#4A7A63"/>
<circle cx="448.1" cy="285.8" r="3.4" fill="#4A7A63"/>
<circle cx="534.6" cy="295.1" r="3.4" fill="#4A7A63"/>
<circle cx="638.6" cy="294.0" r="3.4" fill="#4A7A63"/>
<line x1="58.0" y1="348.0" x2="738.0" y2="348.0" stroke="#12181D" stroke-width="1.2"/>
<text x="409" y="392" text-anchor="middle" font-family="Barlow, 'DejaVu Sans', system-ui, sans-serif" font-size="13" fill="#5E6670">Pixels across the crack, along its true normal</text>
<text x="16" y="200" text-anchor="middle" font-family="Barlow, 'DejaVu Sans', system-ui, sans-serif" font-size="13" fill="#5E6670" transform="rotate(-90 16 200)">Width error (%)</text>
<rect x="58" y="43" width="11" height="11" rx="2" fill="#15618F"/><text x="75" y="53" font-family="Barlow, 'DejaVu Sans', system-ui, sans-serif" font-size="13" fill="#12181D">blur corrected</text>
<rect x="180" y="43" width="11" height="11" rx="2" fill="#8A5A06"/><text x="197" y="53" font-family="Barlow, 'DejaVu Sans', system-ui, sans-serif" font-size="13" fill="#12181D">halfdepth</text>
<rect x="267" y="43" width="11" height="11" rx="2" fill="#A8321F"/><text x="284" y="53" font-family="Barlow, 'DejaVu Sans', system-ui, sans-serif" font-size="13" fill="#12181D">area ratio</text>
<rect x="361" y="43" width="11" height="11" rx="2" fill="#4A7A63"/><text x="378" y="53" font-family="Barlow, 'DejaVu Sans', system-ui, sans-serif" font-size="13" fill="#12181D">distance transform</text>
</svg>