<svg xmlns="http://www.w3.org/2000/svg" viewBox="0 0 760 400" width="760" height="400" role="img">
<rect width="760" height="400" fill="#FAF8F3"/>
<text x="58" y="30" font-family="Barlow, 'DejaVu Sans', system-ui, sans-serif" font-size="17" font-weight="600" fill="#12181D">Width error against defocus</text>
<line x1="58.0" y1="348.0" x2="738.0" y2="348.0" stroke="#D8D2C4" stroke-width="1"/>
<text x="49.0" y="352.0" text-anchor="end" font-family="Barlow, 'DejaVu Sans', system-ui, sans-serif" font-size="13" fill="#5E6670">-25</text>
<line x1="58.0" y1="289.3" x2="738.0" y2="289.3" stroke="#D8D2C4" stroke-width="1"/>
<text x="49.0" y="293.3" text-anchor="end" font-family="Barlow, 'DejaVu Sans', system-ui, sans-serif" font-size="13" fill="#5E6670">-10</text>
<line x1="58.0" y1="250.1" x2="738.0" y2="250.1" stroke="#D8D2C4" stroke-width="1"/>
<text x="49.0" y="254.1" text-anchor="end" font-family="Barlow, 'DejaVu Sans', system-ui, sans-serif" font-size="13" fill="#5E6670">0</text>
<line x1="58.0" y1="211.0" x2="738.0" y2="211.0" stroke="#D8D2C4" stroke-width="1"/>
<text x="49.0" y="215.0" text-anchor="end" font-family="Barlow, 'DejaVu Sans', system-ui, sans-serif" font-size="13" fill="#5E6670">10</text>
<line x1="58.0" y1="171.9" x2="738.0" y2="171.9" stroke="#D8D2C4" stroke-width="1"/>
<text x="49.0" y="175.9" text-anchor="end" font-family="Barlow, 'DejaVu Sans', system-ui, sans-serif" font-size="13" fill="#5E6670">20</text>
<line x1="58.0" y1="132.7" x2="738.0" y2="132.7" stroke="#D8D2C4" stroke-width="1"/>
<text x="49.0" y="136.7" text-anchor="end" font-family="Barlow, 'DejaVu Sans', system-ui, sans-serif" font-size="13" fill="#5E6670">30</text>
<line x1="58.0" y1="74.0" x2="738.0" y2="74.0" stroke="#D8D2C4" stroke-width="1"/>
<text x="49.0" y="78.0" text-anchor="end" font-family="Barlow, 'DejaVu Sans', system-ui, sans-serif" font-size="13" fill="#5E6670">45</text>
<line x1="58.0" y1="348.0" x2="58.0" y2="353.0" stroke="#5E6670" stroke-width="1"/>
<text x="58.0" y="369.0" text-anchor="middle" font-family="Barlow, 'DejaVu Sans', system-ui, sans-serif" font-size="13" fill="#5E6670">0.5</text>
<line x1="135.7" y1="348.0" x2="135.7" y2="353.0" stroke="#5E6670" stroke-width="1"/>
<text x="135.7" y="369.0" text-anchor="middle" font-family="Barlow, 'DejaVu Sans', system-ui, sans-serif" font-size="13" fill="#5E6670">0.9</text>
<line x1="252.3" y1="348.0" x2="252.3" y2="353.0" stroke="#5E6670" stroke-width="1"/>
<text x="252.3" y="369.0" text-anchor="middle" font-family="Barlow, 'DejaVu Sans', system-ui, sans-serif" font-size="13" fill="#5E6670">1.5</text>
<line x1="446.6" y1="348.0" x2="446.6" y2="353.0" stroke="#5E6670" stroke-width="1"/>
<text x="446.6" y="369.0" text-anchor="middle" font-family="Barlow, 'DejaVu Sans', system-ui, sans-serif" font-size="13" fill="#5E6670">2.5</text>
<line x1="738.0" y1="348.0" x2="738.0" y2="353.0" stroke="#5E6670" stroke-width="1"/>
<text x="738.0" y="369.0" text-anchor="middle" font-family="Barlow, 'DejaVu Sans', system-ui, sans-serif" font-size="13" fill="#5E6670">4</text>
<line x1="58.0" y1="250.1" x2="738.0" y2="250.1" stroke="#12181D" stroke-width="1.4" stroke-dasharray="5 4"/>
<polygon points="58.0,247.9 135.7,251.2 252.3,252.8 446.6,250.7 738.0,239.1 738.0,239.1 446.6,250.7 252.3,253.8 135.7,253.2 58.0,252.2" fill="#15618F" fill-opacity="0.14"/>
<polyline points="58.0,250.0 135.7,252.2 252.3,253.3 446.6,250.7 738.0,239.1" fill="none" stroke="#15618F" stroke-width="2.2" stroke-linejoin="round"/>
<circle cx="58.0" cy="250.0" r="3.4" fill="#15618F"/>
<circle cx="135.7" cy="252.2" r="3.4" fill="#15618F"/>
<circle cx="252.3" cy="253.3" r="3.4" fill="#15618F"/>
<circle cx="446.6" cy="250.7" r="3.4" fill="#15618F"/>
<circle cx="738.0" cy="239.1" r="3.4" fill="#15618F"/>
<polygon points="58.0,247.9 135.7,248.8 252.3,252.7 446.6,250.6 738.0,236.9 738.0,236.9 446.6,250.6 252.3,253.5 135.7,252.4 58.0,252.0" fill="#8A5A06" fill-opacity="0.14"/>
<polyline points="58.0,250.0 135.7,250.6 252.3,253.1 446.6,250.6 738.0,236.9" fill="none" stroke="#8A5A06" stroke-width="2.2" stroke-linejoin="round"/>
<circle cx="58.0" cy="250.0" r="3.4" fill="#8A5A06"/>
<circle cx="135.7" cy="250.6" r="3.4" fill="#8A5A06"/>
<circle cx="252.3" cy="253.1" r="3.4" fill="#8A5A06"/>
<circle cx="446.6" cy="250.6" r="3.4" fill="#8A5A06"/>
<circle cx="738.0" cy="236.9" r="3.4" fill="#8A5A06"/>
<line x1="58.0" y1="348.0" x2="738.0" y2="348.0" stroke="#12181D" stroke-width="1.2"/>
<text x="409" y="392" text-anchor="middle" font-family="Barlow, 'DejaVu Sans', system-ui, sans-serif" font-size="13" fill="#5E6670">Defocus blur sigma (pixels)</text>
<text x="16" y="200" text-anchor="middle" font-family="Barlow, 'DejaVu Sans', system-ui, sans-serif" font-size="13" fill="#5E6670" transform="rotate(-90 16 200)">Width error (%)</text>
<rect x="58" y="43" width="11" height="11" rx="2" fill="#15618F"/><text x="75" y="53" font-family="Barlow, 'DejaVu Sans', system-ui, sans-serif" font-size="13" fill="#12181D">blur corrected</text>
<rect x="180" y="43" width="11" height="11" rx="2" fill="#8A5A06"/><text x="197" y="53" font-family="Barlow, 'DejaVu Sans', system-ui, sans-serif" font-size="13" fill="#12181D">halfdepth</text>
</svg>